<?xml version="1.0" encoding="utf-8"?>
<svg version="1.1" xmlns:xlink="http://www.w3.org/1999/xlink" width="12px" height="7px" xmlns="http://www.w3.org/2000/svg">
  <g transform="matrix(1 0 0 1 -306 -193 )">
    <path d="M 11.77734375 0.230902777777767  C 11.92578125 0.384837962962967  12 0.567129629629633  12 0.777777777777767  C 12 0.988425925925933  11.92578125 1.1707175925926  11.77734375 1.32465277777777  L 6.52734375 6.76909722222223  C 6.37890624999995 6.9230324074074  6.20312499999995 7  6 7  C 5.79687500000005 7  5.62109375000005 6.9230324074074  5.47265625 6.76909722222223  L 0.22265624999995 1.32465277777777  C 0.0742187500000256 1.1707175925926  0 0.988425925925933  0 0.777777777777767  C 0 0.567129629629633  0.0742187500000256 0.384837962962967  0.22265624999995 0.230902777777767  C 0.371093750000002 0.0769675925926  0.546875000000002 0  0.749999999999953 0  L 11.25 0  C 11.453125 0  11.62890625 0.0769675925926  11.77734375 0.230902777777767  Z " fill-rule="nonzero" fill="#cccccc" stroke="none" transform="matrix(1 0 0 1 306 193 )" />
  </g>
</svg>