<?xml version="1.0" encoding="utf-8"?>
<svg version="1.1" xmlns:xlink="http://www.w3.org/1999/xlink" width="10px" height="374px" preserveAspectRatio="xMidYMin meet" viewBox="176 886  8 374" xmlns="http://www.w3.org/2000/svg">
  <path d="M 180.5 891  L 180.5 1250  " stroke-width="1" stroke="#0033ff" fill="none" />
  <path d="M 180.5 886  A 3 3 0 0 0 177.5 889 A 3 3 0 0 0 180.5 892 A 3 3 0 0 0 183.5 889 A 3 3 0 0 0 180.5 886 Z M 180.5 887  A 2 2 0 0 1 182.5 889 A 2 2 0 0 1 180.5 891 A 2 2 0 0 1 178.5 889 A 2 2 0 0 1 180.5 887 Z M 174.2 1249  L 180.5 1255  L 186.8 1249  L 174.2 1249  Z " fill-rule="nonzero" fill="#0033ff" stroke="none" />
</svg>