<?xml version="1.0" encoding="utf-8"?>
<svg version="1.1" xmlns:xlink="http://www.w3.org/1999/xlink" width="18px" height="18px" preserveAspectRatio="xMinYMid meet" viewBox="171 1310  18 16" xmlns="http://www.w3.org/2000/svg">
  <path d="M 180.5 1320  L 180.5 1679  " stroke-width="1" stroke="#0033ff" fill="none" />
  <path d="M 180.5 1315  A 3 3 0 0 0 177.5 1318 A 3 3 0 0 0 180.5 1321 A 3 3 0 0 0 183.5 1318 A 3 3 0 0 0 180.5 1315 Z M 180.5 1316  A 2 2 0 0 1 182.5 1318 A 2 2 0 0 1 180.5 1320 A 2 2 0 0 1 178.5 1318 A 2 2 0 0 1 180.5 1316 Z M 174.2 1678  L 180.5 1684  L 186.8 1678  L 174.2 1678  Z " fill-rule="nonzero" fill="#0033ff" stroke="none" />
</svg>