<?xml version="1.0" encoding="utf-8"?>
<svg version="1.1" xmlns:xlink="http://www.w3.org/1999/xlink" width="18px" height="18px" preserveAspectRatio="xMinYMid meet" viewBox="817 253  18 16" xmlns="http://www.w3.org/2000/svg">
  <path d="M 826.5 263  L 826.5 297  " stroke-width="1" stroke="#0033ff" fill="none" />
  <path d="M 826.5 258  A 3 3 0 0 0 823.5 261 A 3 3 0 0 0 826.5 264 A 3 3 0 0 0 829.5 261 A 3 3 0 0 0 826.5 258 Z M 826.5 259  A 2 2 0 0 1 828.5 261 A 2 2 0 0 1 826.5 263 A 2 2 0 0 1 824.5 261 A 2 2 0 0 1 826.5 259 Z M 820.2 296  L 826.5 302  L 832.8 296  L 820.2 296  Z " fill-rule="nonzero" fill="#0033ff" stroke="none" />
</svg>