<?xml version="1.0" encoding="utf-8"?>
<svg version="1.1" xmlns:xlink="http://www.w3.org/1999/xlink" width="18px" height="18px" preserveAspectRatio="xMinYMid meet" viewBox="817 357  18 16" xmlns="http://www.w3.org/2000/svg">
  <path d="M 826.5 367  L 826.5 821  " stroke-width="1" stroke="#0033ff" fill="none" />
  <path d="M 826.5 362  A 3 3 0 0 0 823.5 365 A 3 3 0 0 0 826.5 368 A 3 3 0 0 0 829.5 365 A 3 3 0 0 0 826.5 362 Z M 826.5 363  A 2 2 0 0 1 828.5 365 A 2 2 0 0 1 826.5 367 A 2 2 0 0 1 824.5 365 A 2 2 0 0 1 826.5 363 Z M 820.2 820  L 826.5 826  L 832.8 820  L 820.2 820  Z " fill-rule="nonzero" fill="#0033ff" stroke="none" />
</svg>