<?xml version="1.0" encoding="utf-8"?>
<svg version="1.1" xmlns:xlink="http://www.w3.org/1999/xlink" width="10px" height="374px" preserveAspectRatio="xMidYMin meet" viewBox="822 1315  8 374" xmlns="http://www.w3.org/2000/svg">
  <path d="M 826.5 1320  L 826.5 1679  " stroke-width="1" stroke="#0033ff" fill="none" />
  <path d="M 826.5 1315  A 3 3 0 0 0 823.5 1318 A 3 3 0 0 0 826.5 1321 A 3 3 0 0 0 829.5 1318 A 3 3 0 0 0 826.5 1315 Z M 826.5 1316  A 2 2 0 0 1 828.5 1318 A 2 2 0 0 1 826.5 1320 A 2 2 0 0 1 824.5 1318 A 2 2 0 0 1 826.5 1316 Z M 820.2 1678  L 826.5 1684  L 832.8 1678  L 820.2 1678  Z " fill-rule="nonzero" fill="#0033ff" stroke="none" />
</svg>