<?xml version="1.0" encoding="utf-8"?>
<svg version="1.1" xmlns:xlink="http://www.w3.org/1999/xlink" width="18px" height="18px" preserveAspectRatio="xMinYMid meet" viewBox="197 1909  18 16" xmlns="http://www.w3.org/2000/svg">
  <path d="M 206.5 1919  L 206.5 1953  " stroke-width="1" stroke="#0033ff" fill="none" />
  <path d="M 206.5 1914  A 3 3 0 0 0 203.5 1917 A 3 3 0 0 0 206.5 1920 A 3 3 0 0 0 209.5 1917 A 3 3 0 0 0 206.5 1914 Z M 206.5 1915  A 2 2 0 0 1 208.5 1917 A 2 2 0 0 1 206.5 1919 A 2 2 0 0 1 204.5 1917 A 2 2 0 0 1 206.5 1915 Z M 200.2 1952  L 206.5 1958  L 212.8 1952  L 200.2 1952  Z " fill-rule="nonzero" fill="#0033ff" stroke="none" />
</svg>