<?xml version="1.0" encoding="utf-8"?>
<svg version="1.1" xmlns:xlink="http://www.w3.org/1999/xlink" width="18px" height="19px" preserveAspectRatio="xMidYMin meet" viewBox="198 2469  16 19" xmlns="http://www.w3.org/2000/svg">
  <path d="M 206.5 2023  L 206.5 2477  " stroke-width="1" stroke="#0033ff" fill="none" />
  <path d="M 206.5 2018  A 3 3 0 0 0 203.5 2021 A 3 3 0 0 0 206.5 2024 A 3 3 0 0 0 209.5 2021 A 3 3 0 0 0 206.5 2018 Z M 206.5 2019  A 2 2 0 0 1 208.5 2021 A 2 2 0 0 1 206.5 2023 A 2 2 0 0 1 204.5 2021 A 2 2 0 0 1 206.5 2019 Z M 200.2 2476  L 206.5 2482  L 212.8 2476  L 200.2 2476  Z " fill-rule="nonzero" fill="#0033ff" stroke="none" />
</svg>