<?xml version="1.0" encoding="utf-8"?>
<svg version="1.1" xmlns:xlink="http://www.w3.org/1999/xlink" width="18px" height="18px" preserveAspectRatio="xMinYMid meet" viewBox="200 2539  18 16" xmlns="http://www.w3.org/2000/svg">
  <path d="M 209.5 2549  L 209.5 2764  " stroke-width="1" stroke="#0033ff" fill="none" />
  <path d="M 209.5 2544  A 3 3 0 0 0 206.5 2547 A 3 3 0 0 0 209.5 2550 A 3 3 0 0 0 212.5 2547 A 3 3 0 0 0 209.5 2544 Z M 209.5 2545  A 2 2 0 0 1 211.5 2547 A 2 2 0 0 1 209.5 2549 A 2 2 0 0 1 207.5 2547 A 2 2 0 0 1 209.5 2545 Z M 203.2 2763  L 209.5 2769  L 215.8 2763  L 203.2 2763  Z " fill-rule="nonzero" fill="#0033ff" stroke="none" />
</svg>