<?xml version="1.0" encoding="utf-8"?>
<svg version="1.1" xmlns:xlink="http://www.w3.org/1999/xlink" width="111px" height="67px" xmlns="http://www.w3.org/2000/svg">
  <g transform="matrix(1 0 0 1 -237 -741 )">
    <path d="M 237 741  L 348 741  L 348 808  L 237 808  L 237 741  " fill-rule="nonzero" fill="#cccccc" stroke="none" />
    <path d="M 242 746  L 343 746  L 343 803  L 242 803  L 242 746  " fill-rule="nonzero" fill="#ffffff" stroke="none" />
    <path d="M 299.745 761.1  C 296.931 761.1  294.72 758.889  294.72 756.075  C 294.72 753.261  296.931 751.05  299.745 751.05  C 302.559 751.05  304.77 753.261  304.77 756.075  C 304.77 758.889  302.559 761.1  299.745 761.1  " fill-rule="nonzero" fill="#cccccc" stroke="none" />
    <path d="M 244 802  L 244 772.3  L 268.5 758.8  L 302.8 782.443243243243  L 322.4 766.9  L 342 782.443243243243  L 342 802  L 244 802  " fill-rule="nonzero" fill="#169bd5" stroke="none" />
  </g>
</svg>