<?xml version="1.0" encoding="utf-8"?>
<svg version="1.1" xmlns:xlink="http://www.w3.org/1999/xlink" width="62px" height="62px" xmlns="http://www.w3.org/2000/svg">
  <g transform="matrix(1 0 0 1 -347 -464 )">
    <path d="M 378 464  C 395.36 464  409 477.64  409 495  C 409 512.36  395.36 526  378 526  C 360.64 526  347 512.36  347 495  C 347 477.64  360.64 464  378 464  Z " fill-rule="nonzero" fill="#ffffff" stroke="none" />
    <path d="M 378 464.5  C 395.08 464.5  408.5 477.92  408.5 495  C 408.5 512.08  395.08 525.5  378 525.5  C 360.92 525.5  347.5 512.08  347.5 495  C 347.5 477.92  360.92 464.5  378 464.5  Z " stroke-width="1" stroke="#797979" fill="none" />
  </g>
</svg>