<?xml version="1.0" encoding="utf-8"?>
<svg version="1.1" xmlns:xlink="http://www.w3.org/1999/xlink" width="29px" height="19px" xmlns="http://www.w3.org/2000/svg">
  <g transform="matrix(1 0 0 1 -342 -631 )">
    <path d="M 21.5315290178571 14.8849826388889  C 23.6946614583333 13.5490451388889  25.4936755952381 11.7540509259259  26.9285714285714 9.5  C 25.2886904761905 6.90509259259259  23.2334449404762 4.96440972222222  20.7628348214286 3.67795138888889  C 21.4209449404762 4.8214699074074  21.75 6.05844907407407  21.75 7.38888888888889  C 21.75 9.4230324074074  21.0406436011905 11.1630497685185  19.6219308035714 12.6089409722222  C 18.2032180059524 14.0548321759259  16.4959077380952 14.7777777777778  14.5 14.7777777777778  C 12.5040922619048 14.7777777777778  10.7967819940476 14.0548321759259  9.37806919642857 12.6089409722222  C 7.95935639880953 11.1630497685185  7.25 9.4230324074074  7.25 7.38888888888889  C 7.25 6.05844907407407  7.57905505952381 4.8214699074074  8.23716517857143 3.67795138888889  C 5.76655505952381 4.96440972222222  3.71130952380952 6.90509259259259  2.07142857142857 9.5  C 3.50632440476191 11.7540509259259  5.30533854166667 13.5490451388889  7.46847098214286 14.8849826388889  C 9.63160342261905 16.2209201388889  11.9754464285714 16.8888888888889  14.5 16.8888888888889  C 17.0245535714286 16.8888888888889  19.368396577381 16.2209201388889  21.5315290178571 14.8849826388889  Z M 15.0502232142857 3.72743055555556  C 15.2012648809524 3.57349537037037  15.2767857142857 3.38657407407407  15.2767857142857 3.16666666666667  C 15.2767857142857 2.94675925925926  15.2012648809524 2.75983796296296  15.0502232142857 2.60590277777778  C 14.8991815476191 2.45196759259259  14.7157738095238 2.375  14.5 2.375  C 13.1514136904762 2.375  11.9943266369048 2.86704282407407  11.0287388392857 3.85112847222222  C 10.0631510416667 4.83521412037037  9.58035714285714 6.01446759259259  9.58035714285714 7.38888888888889  C 9.58035714285714 7.60879629629629  9.65587797619048 7.79571759259259  9.80691964285714 7.94965277777778  C 9.95796130952381 8.10358796296296  10.141369047619 8.18055555555556  10.3571428571429 8.18055555555556  C 10.5729166666667 8.18055555555556  10.7563244047619 8.10358796296296  10.9073660714286 7.94965277777778  C 11.0584077380952 7.79571759259259  11.1339285714286 7.60879629629629  11.1339285714286 7.38888888888889  C 11.1339285714286 6.44328703703704  11.4629836309524 5.63512731481481  12.12109375 4.96440972222222  C 12.7792038690476 4.29369212962963  13.5721726190476 3.95833333333333  14.5 3.95833333333333  C 14.7157738095238 3.95833333333333  14.8991815476191 3.88136574074074  15.0502232142857 3.72743055555556  Z M 28.6763392857143 8.36197916666667  C 28.8921130952381 8.74681712962963  29 9.1261574074074  29 9.5  C 29 9.87384259259259  28.8921130952381 10.2531828703704  28.6763392857143 10.6380208333333  C 27.1659226190476 13.1669560185185  25.1349516369048 15.1928530092593  22.5834263392857 16.7157118055556  C 20.0319010416667 18.2385706018519  17.3374255952381 19  14.5 19  C 11.6625744047619 19  8.96809895833333 18.2358217592593  6.41657366071429 16.7074652777778  C 3.86504836309524 15.1791087962963  1.83407738095238 13.1559606481481  0.323660714285714 10.6380208333333  C 0.107886904761905 10.2531828703704  0 9.87384259259259  0 9.5  C 0 9.1261574074074  0.107886904761905 8.74681712962963  0.323660714285714 8.36197916666667  C 1.83407738095238 5.84403935185185  3.86504836309524 3.8208912037037  6.41657366071429 2.29253472222222  C 8.96809895833333 0.764178240740739  11.6625744047619 0  14.5 0  C 17.3374255952381 0  20.0319010416667 0.764178240740739  22.5834263392857 2.29253472222222  C 25.1349516369048 3.8208912037037  27.1659226190476 5.84403935185185  28.6763392857143 8.36197916666667  Z " fill-rule="nonzero" fill="#7f7f7f" stroke="none" transform="matrix(1 0 0 1 342 631 )" />
  </g>
</svg>