<?xml version="1.0" encoding="utf-8"?>
<svg version="1.1" xmlns:xlink="http://www.w3.org/1999/xlink" width="30px" height="30px" xmlns="http://www.w3.org/2000/svg">
  <g transform="matrix(1 0 0 1 -989 -1299 )">
    <path d="M 1004 1299  C 1012.4 1299  1019 1305.6  1019 1314  C 1019 1322.4  1012.4 1329  1004 1329  C 995.6 1329  989 1322.4  989 1314  C 989 1305.6  995.6 1299  1004 1299  Z " fill-rule="nonzero" fill="#ffffff" stroke="none" />
    <path d="M 1004 1299.5  C 1012.12 1299.5  1018.5 1305.88  1018.5 1314  C 1018.5 1322.12  1012.12 1328.5  1004 1328.5  C 995.88 1328.5  989.5 1322.12  989.5 1314  C 989.5 1305.88  995.88 1299.5  1004 1299.5  Z " stroke-width="1" stroke="#797979" fill="none" />
  </g>
</svg>