<?xml version="1.0" encoding="utf-8"?>
<svg version="1.1" xmlns:xlink="http://www.w3.org/1999/xlink" width="36px" height="36px" xmlns="http://www.w3.org/2000/svg">
  <g transform="matrix(1 0 0 1 -1495 -1565 )">
    <path d="M 1513 1565  C 1523.08 1565  1531 1572.92  1531 1583  C 1531 1593.08  1523.08 1601  1513 1601  C 1502.92 1601  1495 1593.08  1495 1583  C 1495 1572.92  1502.92 1565  1513 1565  Z " fill-rule="nonzero" fill="#ffffff" stroke="none" />
    <path d="M 1513 1565.5  C 1522.8 1565.5  1530.5 1573.2  1530.5 1583  C 1530.5 1592.8  1522.8 1600.5  1513 1600.5  C 1503.2 1600.5  1495.5 1592.8  1495.5 1583  C 1495.5 1573.2  1503.2 1565.5  1513 1565.5  Z " stroke-width="1" stroke="#797979" fill="none" />
  </g>
</svg>