<?xml version="1.0" encoding="utf-8"?>
<svg version="1.1" xmlns:xlink="http://www.w3.org/1999/xlink" width="31px" height="31px" xmlns="http://www.w3.org/2000/svg">
  <g transform="matrix(1 0 0 1 -842 -630 )">
    <path d="M 857.5 630  C 866.18 630  873 636.82  873 645.5  C 873 654.18  866.18 661  857.5 661  C 848.82 661  842 654.18  842 645.5  C 842 636.82  848.82 630  857.5 630  Z " fill-rule="nonzero" fill="#f2f2f2" stroke="none" />
    <path d="M 857.5 630.5  C 865.9 630.5  872.5 637.1  872.5 645.5  C 872.5 653.9  865.9 660.5  857.5 660.5  C 849.1 660.5  842.5 653.9  842.5 645.5  C 842.5 637.1  849.1 630.5  857.5 630.5  Z " stroke-width="1" stroke="#797979" fill="none" />
  </g>
</svg>