<?xml version="1.0" encoding="utf-8"?>
<svg version="1.1" xmlns:xlink="http://www.w3.org/1999/xlink" width="14px" height="7px" xmlns="http://www.w3.org/2000/svg">
  <g transform="matrix(1 0 0 1 -432 -179 )">
    <path d="M 13.7402343750001 0.230902777777767  C 13.9134114583333 0.384837962962967  14 0.567129629629633  14 0.777777777777767  C 14 0.988425925925933  13.9134114583333 1.1707175925926  13.7402343750001 1.32465277777777  L 7.615234375 6.76909722222223  C 7.44205729166661 6.9230324074074  7.23697916666661 7  7 7  C 6.76302083333339 7  6.55794270833339 6.9230324074074  6.384765625 6.76909722222223  L 0.259765624999942 1.32465277777777  C 0.0865885416666965 1.1707175925926  0 0.988425925925933  0 0.777777777777767  C 0 0.567129629629633  0.0865885416666965 0.384837962962967  0.259765624999942 0.230902777777767  C 0.432942708333335 0.0769675925926  0.638020833333336 0  0.874999999999945 0  L 13.1250000000001 0  C 13.3619791666667 0  13.5670572916667 0.0769675925926  13.7402343750001 0.230902777777767  Z " fill-rule="nonzero" fill="#cccccc" stroke="none" transform="matrix(1 0 0 1 432 179 )" />
  </g>
</svg>