<?xml version="1.0" encoding="utf-8"?>
<svg version="1.1" xmlns:xlink="http://www.w3.org/1999/xlink" width="13px" height="7px" xmlns="http://www.w3.org/2000/svg">
  <g transform="matrix(1 0 0 1 -561 -179 )">
    <path d="M 12.7587890625001 0.230902777777767  C 12.9195963541666 0.384837962962967  13 0.567129629629633  13 0.777777777777767  C 13 0.988425925925933  12.9195963541666 1.1707175925926  12.7587890625001 1.32465277777777  L 7.0712890625 6.76909722222223  C 6.91048177083328 6.9230324074074  6.72005208333328 7  6.5 7  C 6.27994791666672 7  6.08951822916672 6.9230324074074  5.9287109375 6.76909722222223  L 0.241210937499946 1.32465277777777  C 0.080403645833361 1.1707175925926  0 0.988425925925933  0 0.777777777777767  C 0 0.567129629629633  0.080403645833361 0.384837962962967  0.241210937499946 0.230902777777767  C 0.402018229166668 0.0769675925926  0.592447916666669 0  0.812499999999949 0  L 12.1875000000001 0  C 12.4075520833333 0  12.5979817708333 0.0769675925926  12.7587890625001 0.230902777777767  Z " fill-rule="nonzero" fill="#cccccc" stroke="none" transform="matrix(1 0 0 1 561 179 )" />
  </g>
</svg>