<?xml version="1.0" encoding="utf-8"?>
<svg version="1.1" xmlns:xlink="http://www.w3.org/1999/xlink" width="300px" height="170px" xmlns="http://www.w3.org/2000/svg">
  <g transform="matrix(1 0 0 1 -224 -379 )">
    <path d="M 224 379  L 524 379  L 524 549  L 224 549  L 224 379  " fill-rule="nonzero" fill="#cccccc" stroke="none" />
    <path d="M 236 391  L 512 391  L 512 537  L 236 537  L 236 391  " fill-rule="nonzero" fill="#ffffff" stroke="none" />
    <path d="M 392.75 430  C 385.61 430  380 424.39  380 417.25  C 380 410.11  385.61 404.5  392.75 404.5  C 399.89 404.5  405.5 410.11  405.5 417.25  C 405.5 424.39  399.89 430  392.75 430  " fill-rule="nonzero" fill="#cccccc" stroke="none" />
    <path d="M 241 533  L 241 457.65  L 307.75 423.4  L 401.2 486.42  L 454.6 443.95  L 508 486.42  L 508 533  L 241 533  " fill-rule="nonzero" fill="#169bd5" stroke="none" />
  </g>
</svg>